<svg version="1.2" baseProfile="tiny"
	 xmlns="http://www.w3.org/2000/svg" xmlns:xlink="http://www.w3.org/1999/xlink" x="0px" y="0px" width="85.0396px"
	 height="70.8662px" viewBox="0 0 85.0396 70.8662" >
<g>
	<polygon fill="#FFFFFF" stroke="#222221" stroke-width="0.75" stroke-miterlimit="10" points="38.8911,21.8091 38.8911,35.979 
		34.1211,35.979 34.1211,23.5088 	"/>
	<polygon fill="#FFFFFF" stroke="#222221" stroke-width="0.75" stroke-miterlimit="10" points="47.8716,14.1489 47.8716,35.979 
		44.981,35.979 44.981,13.1987 	"/>
	<polyline fill="none" stroke="#222221" stroke-width="0.75" stroke-miterlimit="10" points="20.7407,35.979 29.0308,35.979 
		29.0308,25.3291 34.1211,23.5088 34.1211,10.8389 47.8716,5.959 47.8716,14.1489 59.3608,17.9287 59.3608,35.979 66.4009,35.979 	
		"/>
	<g>
		<g>
			<path fill="#222221" d="M11.8711,43.8574v9.4004h-1.7637v-5.1055L6.876,53.2969l-3.2314-5.1445v5.1055H1.7632v-9.4004h0.9897
				l4.123,6.2715l4.1162-6.2715H11.8711z"/>
			<g>
				<path fill="#222221" d="M16.7339,53.6328c-2.897,0-5.1665-2.2295-5.1665-5.0762c0-2.8486,2.2695-5.0801,5.1665-5.0801
					c2.3149,0,4.2935,1.4355,4.9229,3.5713l0.105,0.3564l-2.5938,0.792l-0.1016-0.373c-0.2969-1.0889-1.2344-1.8213-2.3325-1.8213
					c-1.3774,0-2.3774,1.0742-2.3774,2.5547c0,1.4531,1.022,2.5488,2.3774,2.5488c1.1406,0,2.0132-0.6816,2.3335-1.8242
					l0.1035-0.3701l2.5874,0.7979l-0.1011,0.3525C21.0474,52.1982,19.0688,53.6328,16.7339,53.6328z"/>
				<path fill="#FFFFFF" d="M16.7339,43.8516c2.0781,0,3.9531,1.2324,4.563,3.3027l-1.8687,0.5703
					c-0.334-1.2246-1.3828-2.0977-2.6943-2.0977c-1.6313,0-2.7524,1.2793-2.7524,2.9297c0,1.5801,1.0947,2.9238,2.7524,2.9238
					c1.3179,0,2.3345-0.8145,2.6943-2.0977l1.8687,0.5762c-0.564,1.9746-2.4126,3.2988-4.563,3.2988
					c-2.6147,0-4.7915-2.0137-4.7915-4.7012C11.9424,45.9238,14.0205,43.8516,16.7339,43.8516 M16.7339,43.1016
					c-3.1074,0-5.5415,2.3965-5.5415,5.4551c0,3.0566,2.4341,5.4512,5.5415,5.4512c2.5039,0,4.6274-1.5439,5.2842-3.8428
					l0.2017-0.7061l-0.7017-0.2168l-1.8687-0.5762l-0.3667-0.1133l0.3643-0.1104l1.8687-0.5703l0.7104-0.2168l-0.21-0.7129
					C21.3394,44.6455,19.2168,43.1016,16.7339,43.1016L16.7339,43.1016z M16.7339,50.7305c-1.3145,0-2.0024-1.0938-2.0024-2.1738
					c0-1.2832,0.8232-2.1797,2.0024-2.1797c0.9414,0,1.7148,0.6064,1.9707,1.5449l0.1748,0.6406l-0.1733,0.6182
					C18.4341,50.1514,17.6968,50.7305,16.7339,50.7305L16.7339,50.7305z"/>
			</g>
		</g>
		<g>
			<path fill="#222221" stroke="#222221" stroke-width="0.25" stroke-miterlimit="10" d="M25.6987,53.082h-0.5439v-9.0156h0.5439
				V53.082z"/>
			<path fill="#222221" stroke="#222221" stroke-width="0.25" stroke-miterlimit="10" d="M34.1953,53.082h-0.6211l-5.0518-7.1406
				c-0.2788-0.4063-0.5454-0.8105-0.7856-1.2422c0.0508,0.457,0.0376,0.9238,0.0376,1.3809v7.002h-0.5317v-9.0156h0.6338
				l4.9507,7.0137c0.3047,0.4434,0.5957,0.9004,0.874,1.3555c-0.0249-0.5684-0.0381-1.1523-0.0381-1.7227l-0.0127-6.6465h0.5449
				V53.082z"/>
			<path fill="#222221" stroke="#222221" stroke-width="0.25" stroke-miterlimit="10" d="M41.8291,44.5488h-3.1914v8.5332h-0.5444
				v-8.5332h-3.2036v-0.4824h6.9395V44.5488z"/>
			<path fill="#222221" stroke="#222221" stroke-width="0.25" stroke-miterlimit="10" d="M48.4614,44.5488h-5.5327v3.6074h5.1929
				v0.4824h-5.1929v3.9609h5.5835v0.4824h-6.1274v-9.0156h6.0767V44.5488z"/>
			<path fill="#222221" stroke="#222221" stroke-width="0.25" stroke-miterlimit="10" d="M53.2583,44.0664
				c0.8496,0,1.4199,0.127,1.875,0.418c0.6465,0.4316,1.002,1.1152,1.002,1.9746c0,1.2168-0.7617,2.0391-1.9121,2.2559
				c0.7969,0.125,1.4805,0.4043,1.6582,1.3926c0.1523,0.834,0.0762,1.709,0.2402,2.5449c0.0391,0.2148,0.0625,0.2402,0.1758,0.4297
				h-0.6055c-0.0762-0.1133-0.1016-0.2402-0.127-0.3672c-0.0645-0.4063-0.1016-1.4805-0.127-1.8496
				c-0.127-1.6953-0.9746-1.9238-2.5449-1.9238h-2.7988v4.1406h-0.5449v-9.0156H53.2583z M50.0942,48.4844h2.7227
				c1.3789,0,2.7734-0.3027,2.7734-1.998c0-0.7227-0.2656-1.2539-0.8242-1.5957c-0.543-0.3301-1.0508-0.3555-1.6836-0.3555h-2.9883
				V48.4844z"/>
			<path fill="#222221" stroke="#222221" stroke-width="0.25" stroke-miterlimit="10" d="M58.0708,53.082h-0.5449v-9.0156h0.5449
				V53.082z"/>
			<path fill="#222221" stroke="#222221" stroke-width="0.25" stroke-miterlimit="10" d="M67.8442,48.6387
				c0,2.7832-1.7344,4.6582-4.3047,4.6582c-2.5586,0-4.2676-1.8867-4.2676-4.7227c0-2.8105,1.7344-4.7227,4.2676-4.7227
				C66.0845,43.8516,67.8442,45.8008,67.8442,48.6387z M59.8286,48.5488c0,2.5449,1.4961,4.2676,3.7109,4.2676
				c2.2285,0,3.748-1.6973,3.748-4.2051c0-2.5313-1.5313-4.2793-3.748-4.2793C61.147,44.332,59.8286,46.334,59.8286,48.5488z"/>
			<path fill="#222221" stroke="#222221" stroke-width="0.25" stroke-miterlimit="10" d="M72.7681,44.0664
				c0.8496,0,1.418,0.127,1.875,0.418c0.6445,0.4316,1,1.1152,1,1.9746c0,1.2168-0.7598,2.0391-1.9121,2.2559
				c0.7969,0.125,1.4824,0.4043,1.6602,1.3926c0.1504,0.834,0.0742,1.709,0.2402,2.5449c0.0371,0.2148,0.0625,0.2402,0.1758,0.4297
				h-0.6074c-0.0762-0.1133-0.1016-0.2402-0.127-0.3672c-0.0625-0.4063-0.1016-1.4805-0.127-1.8496
				c-0.125-1.6953-0.9746-1.9238-2.543-1.9238h-2.8008v4.1406h-0.543v-9.0156H72.7681z M69.6021,48.4844h2.7227
				c1.3809,0,2.7734-0.3027,2.7734-1.998c0-0.7227-0.2656-1.2539-0.8223-1.5957c-0.5449-0.3301-1.0508-0.3555-1.6855-0.3555h-2.9883
				V48.4844z"/>
			<path fill="#222221" stroke="#222221" stroke-width="0.25" stroke-miterlimit="10" d="M82.9106,46.6367
				c-0.1016-1.6582-1.2539-2.2793-2.8359-2.2793c-1.5977,0-2.5332,0.709-2.5332,1.8867c0,1.457,1.3789,1.6348,3.1777,2.0391
				c1.3926,0.3184,2.9629,0.6465,2.9629,2.418c0,1.6074-1.2656,2.5703-3.3809,2.5703c-2.1406,0-3.5703-1-3.5703-3.1777h0.5195
				c0.0371,1.873,1.2012,2.7227,3.0762,2.7227c1.7734,0,2.8242-0.7734,2.8242-2.0898c0-1.582-1.8477-1.7852-3.0254-2.0508
				c-1.4199-0.3281-3.1289-0.5957-3.1289-2.4199c0-1.4668,1.1777-2.3789,3.1152-2.3789c1.8867,0,3.2168,0.8359,3.3438,2.7598
				H82.9106z"/>
		</g>
		<g display="none">
			<path display="inline" fill="#222221" d="M27.0693,53.082h-0.8223v-9.0156h0.8223V53.082z"/>
			<path display="inline" fill="#222221" d="M35.6504,53.082h-0.9082l-4.0059-6.0527c-0.4116-0.6191-0.8228-1.2539-1.1377-1.9238
				c0.0483,0.7207,0.0605,1.4316,0.0605,2.1523v5.8242h-0.7988v-9.0156h0.9077l4.0308,6.1152
				c0.3989,0.6074,0.7861,1.2402,1.125,1.8867c-0.0239-0.7969-0.0601-1.582-0.0601-2.3789v-5.623h0.7866V53.082z"/>
			<path display="inline" fill="#222221" d="M43.3218,44.8008h-3.0259v8.2813h-0.8232v-8.2813h-3.0259v-0.7344h6.875V44.8008z"/>
			<path display="inline" fill="#222221" d="M50.0981,44.8008h-5.1563v3.2539h4.8301v0.7227h-4.8301v3.5703h5.2051v0.7344h-6.0288
				v-9.0156h5.98V44.8008z"/>
			<path display="inline" fill="#222221" d="M55.1919,44.0664c1.5234,0,2.6855,0.709,2.6855,2.4316
				c0,1.1777-0.6289,1.9629-1.6816,2.2285c1.0898,0.2031,1.4395,0.8359,1.5137,2.0371c0.0234,0.3945,0.0234,1.9121,0.4102,2.3184
				H57.188c-0.2422-0.3164-0.2188-1.5332-0.2539-2.002c-0.1094-1.6953-0.7148-2.0234-2.2871-2.0234h-2.5293v4.0254h-0.8242v-9.0156
				H55.1919z M52.1177,48.3711h2.4316c1.2227,0,2.5176-0.2148,2.5176-1.8223c0-1.3809-1.0293-1.748-2.1426-1.748h-2.8066V48.3711z"
				/>
			<path display="inline" fill="#222221" d="M60.2485,53.082h-0.8242v-9.0156h0.8242V53.082z"/>
			<path display="inline" fill="#222221" d="M69.7251,48.6016c0,2.8086-1.6465,4.6953-4.0801,4.6953
				c-2.4199,0-4.043-1.8984-4.043-4.7227c0-2.8105,1.6348-4.7227,4.0547-4.7227C68.0669,43.8516,69.7251,45.7754,69.7251,48.6016z
				 M62.4263,48.5488c0,2.418,1.2832,4,3.2305,4c1.9492,0,3.2441-1.582,3.2441-3.9609c0-2.3809-1.3066-3.9902-3.2559-3.9902
				C63.7212,44.5977,62.4263,46.1934,62.4263,48.5488z"/>
			<path display="inline" fill="#222221" d="M74.9146,44.0664c1.5254,0,2.6875,0.709,2.6875,2.4316
				c0,1.1777-0.6289,1.9629-1.6836,2.2285c1.0918,0.2031,1.4414,0.8359,1.5137,2.0371c0.0254,0.3945,0.0254,1.9121,0.4121,2.3184
				h-0.9316c-0.2422-0.3164-0.2188-1.5332-0.2539-2.002c-0.1094-1.6953-0.7148-2.0234-2.2871-2.0234h-2.5313v4.0254h-0.8242v-9.0156
				H74.9146z M71.8403,48.3711h2.4316c1.2246,0,2.5176-0.2148,2.5176-1.8223c0-1.3809-1.0273-1.748-2.1406-1.748h-2.8086V48.3711z"
				/>
			<path display="inline" fill="#222221" d="M84.3052,46.6621c-0.0723-1.3672-0.9941-2.0508-2.3965-2.0508
				c-1.3555,0-2.1563,0.6211-2.1563,1.6973c0,1.1777,0.957,1.3926,2.3242,1.709c1.9004,0.4297,3.293,0.8105,3.293,2.6074
				c0,1.9492-1.6465,2.6465-3.2441,2.6465c-2.1426,0-3.4375-1.1641-3.4375-3.0898v-0.0742h0.7871
				c0,1.6699,1.0645,2.4668,2.7109,2.4668c1.4883,0,2.3965-0.6953,2.3965-1.8613c0-1.2148-0.9082-1.4922-2.916-1.9863
				c-1.3203-0.3164-2.6992-0.6328-2.6992-2.3672c0-1.5195,1.1504-2.4707,3.002-2.4707c1.8145,0,3.0488,0.9121,3.1348,2.7734H84.3052
				z"/>
		</g>
	</g>
	<g>
		<path fill="#222221" d="M6.3521,63.8828l0.0376-0.2324h0.1265c0.1616,0,0.2686-0.0449,0.3213-0.1387
			c0.0522-0.0918,0.1855-0.5527,0.3999-1.3828l0.4741-1.8477c0.1001-0.3867,0.1504-0.623,0.1504-0.707
			c0-0.0859-0.0322-0.1504-0.0977-0.1934c-0.0645-0.0449-0.1714-0.0664-0.3193-0.0664H7.168l0.0376-0.2324
			c0.1436,0.0078,0.4565,0.0137,0.9399,0.0137c0.2959,0,0.4976-0.0059,0.6045-0.0137c0.0503,0.2109,0.1553,0.6172,0.3145,1.2188
			l0.6157,2.3184l0.9727-1.5898c0.2578-0.4258,0.6426-1.0742,1.1538-1.9473c0.4536,0.0078,0.7397,0.0137,0.8579,0.0137
			c0.1934,0,0.4395-0.0059,0.7383-0.0137l-0.041,0.2324h-0.1572c-0.1802,0-0.2969,0.0332-0.3506,0.1035
			c-0.0532,0.0703-0.1143,0.3105-0.1826,0.7227l-0.4312,2.6035c-0.0591,0.3438-0.0889,0.5723-0.0889,0.6836
			c0,0.0859,0.0244,0.1426,0.0737,0.1758c0.0488,0.0313,0.1597,0.0469,0.333,0.0469h0.2085l-0.0376,0.2324l-1.1416-0.0293
			c-0.1343,0-0.4707,0.0098-1.0083,0.0293l0.0376-0.2324h0.1812c0.1982,0,0.3223-0.0371,0.3726-0.1133
			c0.0503-0.0781,0.1206-0.4023,0.2119-0.9766l0.4336-2.7793l-1.1152,1.8027c-0.4106,0.6621-0.7588,1.2559-1.0439,1.7793
			l-0.332,0.6055H9.1401c-0.1504-0.5938-0.3159-1.2246-0.4956-1.8906l-0.54-2.0488c-0.271,1.1309-0.4971,2.0723-0.6792,2.8242
			c-0.064,0.293-0.0957,0.4922-0.0957,0.5996c0,0.0664,0.0244,0.1152,0.0732,0.1484s0.1396,0.0488,0.2715,0.0488h0.2563
			l-0.0376,0.2324c-0.4692-0.0195-0.7437-0.0293-0.8232-0.0293C6.9146,63.8535,6.6753,63.8633,6.3521,63.8828z"/>
		<path fill="#222221" d="M14.229,62.8945c0-0.457,0.1016-0.8984,0.3042-1.3242c0.1187-0.25,0.3574-0.4883,0.7158-0.7109
			c0.3594-0.2246,0.7095-0.3359,1.0513-0.3359c0.2598,0,0.4761,0.041,0.6494,0.125S17.2505,60.8496,17.3325,61
			c0.082,0.1523,0.123,0.3535,0.123,0.6016c0,0.3125-0.0576,0.625-0.1724,0.9395c-0.1152,0.3125-0.248,0.5469-0.3984,0.6992
			c-0.1958,0.1953-0.4658,0.373-0.8101,0.5332c-0.2417,0.1113-0.4956,0.168-0.7622,0.168c-0.3691,0-0.6421-0.0879-0.8184-0.2617
			C14.3174,63.5059,14.229,63.2441,14.229,62.8945z M15.0459,62.8203c0,0.2852,0.0527,0.4863,0.1577,0.6074
			s0.2637,0.1816,0.4761,0.1816c0.1484,0,0.2798-0.0508,0.3936-0.1543c0.1509-0.1367,0.2827-0.3867,0.396-0.7539
			c0.1128-0.3652,0.1694-0.7383,0.1694-1.1133c0-0.2598-0.0547-0.4531-0.1646-0.5781c-0.1094-0.127-0.2568-0.1895-0.4419-0.1895
			c-0.1621,0-0.3081,0.0566-0.4385,0.1719c-0.1299,0.1133-0.2441,0.3301-0.3423,0.6504
			C15.1143,62.0938,15.0459,62.4863,15.0459,62.8203z"/>
		<path fill="#222221" d="M18.8018,63.9414l-0.0854-0.0898c0.0479-0.123,0.0879-0.2344,0.1196-0.3379
			c0.1089-0.3711,0.1851-0.6328,0.228-0.7832c0.0776-0.2754,0.1416-0.5625,0.1924-0.8574c0.0503-0.2949,0.0757-0.4883,0.0757-0.5762
			c0-0.0684-0.0259-0.1035-0.0786-0.1035c-0.0293,0-0.0786,0.0176-0.147,0.0547c-0.1387,0.0723-0.2617,0.1523-0.3691,0.2402
			l-0.0889-0.1855l0.5161-0.3887c0.2285-0.1621,0.4155-0.2754,0.562-0.3398c0.082-0.0332,0.1597-0.0508,0.2329-0.0508
			c0.064,0,0.1123,0.0156,0.1455,0.0488s0.0498,0.0879,0.0498,0.1602c0,0.0645-0.0093,0.1445-0.0273,0.2422
			c-0.0503,0.2598-0.105,0.5-0.1641,0.7188l-0.1406,0.5117c0.1802-0.293,0.3013-0.4785,0.3628-0.5527
			c0.1865-0.2305,0.3887-0.4395,0.6064-0.625s0.4233-0.3223,0.6172-0.4121c0.1343-0.0605,0.2529-0.0918,0.3555-0.0918
			c0.0957,0,0.1685,0.0273,0.2188,0.082s0.0752,0.1328,0.0752,0.2363c0,0.1504-0.0693,0.4727-0.2085,0.9648l-0.1738,0.627
			c-0.0933,0.3379-0.1401,0.5996-0.1401,0.7891c0,0.0879,0.0264,0.1309,0.0786,0.1309c0.0386,0,0.0957-0.0215,0.1709-0.0645
			c0.146-0.084,0.2588-0.166,0.3384-0.2422l0.0854,0.2012c-0.4033,0.2891-0.6753,0.4707-0.8164,0.543
			c-0.1895,0.0996-0.3442,0.1504-0.4648,0.1504c-0.0845,0-0.147-0.0273-0.188-0.082s-0.0615-0.1504-0.0615-0.2871
			c0-0.1484,0.0454-0.3809,0.1367-0.6953l0.1094-0.3789c0.0977-0.3379,0.1577-0.5625,0.1807-0.6719
			c0.0615-0.2637,0.0923-0.4336,0.0923-0.5098c0-0.041-0.0122-0.0723-0.0361-0.0957s-0.0562-0.0332-0.0972-0.0332
			c-0.1143,0-0.269,0.0977-0.4653,0.293c-0.271,0.2715-0.4951,0.5996-0.6719,0.9863c-0.1768,0.3848-0.3027,0.832-0.3779,1.3418
			C19.2603,63.8301,19.0112,63.875,18.8018,63.9414z"/>
		<path fill="#222221" d="M26.7075,63.0391l0.0615,0.2051l-0.6255,0.459c-0.1504,0.0977-0.2778,0.1641-0.3823,0.2012
			c-0.0684,0.0254-0.1313,0.0371-0.188,0.0371c-0.0801,0-0.146-0.0313-0.1982-0.0918c-0.0527-0.0625-0.0786-0.1445-0.0786-0.25
			c0-0.0605,0.0054-0.123,0.0171-0.1836c0.0522-0.2637,0.1035-0.4883,0.1538-0.6738l0.1504-0.5508
			c-0.2891,0.5488-0.6421,0.998-1.0586,1.3477c-0.3188,0.2676-0.5771,0.4023-0.7754,0.4023c-0.125,0-0.228-0.0566-0.3091-0.1699
			c-0.0806-0.1152-0.1211-0.2988-0.1211-0.5547c0-0.2617,0.0435-0.5586,0.1299-0.8887s0.1982-0.6172,0.335-0.8574
			c0.0771-0.1387,0.1743-0.252,0.2905-0.3359c0.3481-0.2539,0.6284-0.4277,0.8403-0.5195c0.1504-0.0664,0.3145-0.0977,0.4922-0.0977
			c0.1162,0,0.2642,0.0234,0.4438,0.0742l0.1167-0.7441c0.0386-0.2461,0.0581-0.3867,0.0581-0.4219
			c0-0.0547-0.022-0.0957-0.0654-0.123c-0.043-0.0273-0.1299-0.041-0.2598-0.041c-0.0752,0-0.165,0.002-0.27,0.0039l0.041-0.2051
			c0.4194-0.0098,0.8984-0.1133,1.4365-0.3145l0.0923,0.0645c-0.0776,0.2871-0.1606,0.6406-0.2495,1.0566l-0.5903,2.8027
			c-0.0547,0.2598-0.082,0.4512-0.082,0.5742c0,0.0781,0.0249,0.1172,0.0752,0.1172
			C26.2495,63.3613,26.4229,63.2539,26.7075,63.0391z M25.7998,60.998c-0.1714-0.0996-0.3677-0.1504-0.5889-0.1504
			c-0.1987,0-0.3379,0.0391-0.4175,0.1172c-0.1143,0.1094-0.2466,0.4082-0.397,0.8984c-0.1509,0.4883-0.2261,0.918-0.2261,1.2891
			c0,0.0742,0.0132,0.1289,0.0396,0.1641c0.0259,0.0332,0.0596,0.0508,0.1006,0.0508c0.0483,0,0.1118-0.0254,0.1919-0.0762
			c0.1367-0.082,0.2852-0.2227,0.4448-0.4238c0.2124-0.2637,0.3833-0.5293,0.5137-0.7969c0.1299-0.2676,0.2212-0.5234,0.2739-0.7695
			L25.7998,60.998z"/>
		<path fill="#222221" d="M28.0078,62.8945c0-0.457,0.1016-0.8984,0.3042-1.3242c0.1187-0.25,0.3574-0.4883,0.7158-0.7109
			c0.3594-0.2246,0.7095-0.3359,1.0513-0.3359c0.2598,0,0.4761,0.041,0.6494,0.125S31.0293,60.8496,31.1113,61
			c0.082,0.1523,0.123,0.3535,0.123,0.6016c0,0.3125-0.0576,0.625-0.1724,0.9395c-0.1152,0.3125-0.248,0.5469-0.3984,0.6992
			c-0.1958,0.1953-0.4658,0.373-0.8101,0.5332c-0.2417,0.1113-0.4956,0.168-0.7622,0.168c-0.3691,0-0.6421-0.0879-0.8184-0.2617
			C28.0962,63.5059,28.0078,63.2441,28.0078,62.8945z M28.8247,62.8203c0,0.2852,0.0527,0.4863,0.1577,0.6074
			s0.2637,0.1816,0.4761,0.1816c0.1484,0,0.2798-0.0508,0.3936-0.1543c0.1509-0.1367,0.2827-0.3867,0.396-0.7539
			c0.1128-0.3652,0.1694-0.7383,0.1694-1.1133c0-0.2598-0.0547-0.4531-0.1646-0.5781c-0.1094-0.127-0.2568-0.1895-0.4419-0.1895
			c-0.1621,0-0.3081,0.0566-0.4385,0.1719c-0.1299,0.1133-0.2441,0.3301-0.3423,0.6504
			C28.8931,62.0938,28.8247,62.4863,28.8247,62.8203z"/>
		<path fill="#222221" d="M39.0913,63.0156l-0.082,0.2695c-0.3765,0.2207-0.6475,0.3672-0.8125,0.4375
			c-0.1655,0.0703-0.3423,0.125-0.5303,0.1621s-0.3848,0.0566-0.5903,0.0566c-0.6201,0-1.0967-0.1621-1.4297-0.4844
			s-0.4995-0.7813-0.4995-1.3789c0-0.5957,0.1245-1.1152,0.373-1.5527c0.2485-0.4395,0.6201-0.8008,1.1147-1.0859
			c0.4951-0.2852,1.0117-0.4258,1.5498-0.4258c0.2622,0,0.5107,0.0293,0.7456,0.0898s0.4263,0.1367,0.5747,0.2266
			c-0.1392,0.4512-0.2231,0.834-0.2529,1.1465h-0.2427c0.0112-0.0898,0.0171-0.1738,0.0171-0.25
			c0-0.0918-0.0093-0.2344-0.0273-0.4316c-0.1528-0.1172-0.3174-0.2051-0.4941-0.2598c-0.1763-0.0547-0.3867-0.082-0.6304-0.082
			c-0.3896,0-0.7002,0.0801-0.9312,0.2383c-0.2314,0.1582-0.418,0.4199-0.5591,0.7871c-0.1802,0.4609-0.27,0.9688-0.27,1.5254
			c0,0.5039,0.1172,0.8789,0.3521,1.125C36.7012,63.377,37.0381,63.5,37.478,63.5c0.2417,0,0.478-0.0391,0.7095-0.1152
			c0.231-0.0781,0.5073-0.2207,0.8286-0.4316L39.0913,63.0156z"/>
		<path fill="#222221" d="M43.7441,63.0332l0.0723,0.2207c-0.5684,0.459-0.9668,0.6875-1.1958,0.6875
			c-0.0752,0-0.1309-0.0234-0.1675-0.0723c-0.0522-0.0664-0.0786-0.1484-0.0786-0.2461c0-0.1367,0.0801-0.5215,0.2393-1.1563
			l0.0615-0.2422c-0.2778,0.4375-0.4702,0.7207-0.5776,0.8516c-0.1777,0.2188-0.3457,0.3926-0.5039,0.5195
			s-0.3159,0.2246-0.4731,0.2871c-0.0938,0.0391-0.1733,0.0586-0.2393,0.0586c-0.123,0-0.2202-0.0469-0.2905-0.1406
			c-0.0708-0.0938-0.106-0.25-0.106-0.4688c0-0.2617,0.0493-0.5762,0.1484-0.9434s0.2046-0.6523,0.3164-0.8516
			c0.0591-0.1055,0.1846-0.2344,0.3755-0.3848c0.3647-0.2871,0.6216-0.4629,0.771-0.5293c0.1489-0.0664,0.311-0.0996,0.4868-0.0996
			c0.125,0,0.249,0.0137,0.3721,0.043s0.2441,0.0703,0.3623,0.1289l0.3193-0.1719l0.1123,0.0684
			c-0.0186,0.043-0.042,0.1133-0.0713,0.2129l-0.1304,0.457l-0.3843,1.6465c-0.0342,0.1445-0.0513,0.2539-0.0513,0.332
			c0,0.0801,0.0273,0.1211,0.082,0.1211C43.292,63.3613,43.4756,63.252,43.7441,63.0332z M42.8462,61.043
			c-0.1025-0.0508-0.2012-0.0879-0.2954-0.1133c-0.0947-0.0254-0.1865-0.0371-0.2754-0.0371c-0.1572,0-0.291,0.0527-0.4014,0.1582
			c-0.1104,0.1074-0.2305,0.375-0.3604,0.8027c-0.1733,0.5684-0.2598,0.9941-0.2598,1.2734c0,0.0801,0.0137,0.1406,0.041,0.1797
			c0.0273,0.041,0.0591,0.0605,0.0957,0.0605c0.0342,0,0.0806-0.0195,0.1401-0.0586c0.1523-0.1016,0.3301-0.2832,0.5327-0.543
			c0.2031-0.2578,0.3706-0.5273,0.5024-0.8066c0.1323-0.2793,0.2153-0.5273,0.2495-0.7441L42.8462,61.043z"/>
		<path fill="#222221" d="M44.9302,63.75c0.082-0.3145,0.1328-0.6211,0.1543-0.916h0.2109l0.0117,0.332
			c0.0977,0.1172,0.2266,0.2148,0.3887,0.291s0.3262,0.1152,0.4922,0.1152c0.2109,0,0.3691-0.0488,0.4766-0.1445
			c0.1094-0.0957,0.1621-0.2207,0.1621-0.3789c0-0.1211-0.0352-0.2207-0.1094-0.3008c-0.0723-0.0801-0.1953-0.1387-0.3711-0.1758
			l-0.2949-0.0605c-0.2754-0.0566-0.4629-0.1328-0.5645-0.2266c-0.1523-0.1406-0.2285-0.3262-0.2285-0.5547
			c0-0.2715,0.0938-0.4844,0.2813-0.6426c0.4414-0.377,0.873-0.5645,1.291-0.5645c0.1328,0,0.2656,0.0156,0.4004,0.0488
			s0.2695,0.084,0.4063,0.1523c-0.0566,0.2422-0.1016,0.5176-0.1367,0.8242h-0.2051l-0.0371-0.3379
			c-0.1367-0.1191-0.2676-0.2012-0.3926-0.248s-0.2539-0.0703-0.3867-0.0703c-0.168,0-0.3027,0.0469-0.4043,0.1387
			s-0.1523,0.209-0.1523,0.3516c0,0.1387,0.0488,0.248,0.1465,0.3301c0.0957,0.0859,0.2793,0.1504,0.5508,0.1953l0.1914,0.0313
			c0.2383,0.041,0.418,0.1289,0.5391,0.2598c0.1191,0.1328,0.1777,0.2988,0.1777,0.5c0,0.2051-0.0703,0.3887-0.2109,0.5508
			c-0.1426,0.1621-0.3379,0.3184-0.5898,0.4668c-0.252,0.1504-0.5371,0.2246-0.8574,0.2246c-0.1504,0-0.2832-0.0117-0.4004-0.0332
			C45.3521,63.8848,45.1724,63.832,44.9302,63.75z"/>
		<path fill="#222221" d="M52.145,63.0332l0.0723,0.2207c-0.5684,0.459-0.9668,0.6875-1.1953,0.6875
			c-0.0762,0-0.1328-0.0234-0.168-0.0723c-0.0527-0.0664-0.0781-0.1484-0.0781-0.2461c0-0.1367,0.0781-0.5215,0.2383-1.1563
			l0.0625-0.2422c-0.2793,0.4375-0.4707,0.7207-0.5781,0.8516c-0.1777,0.2188-0.3457,0.3926-0.5039,0.5195
			s-0.3164,0.2246-0.4746,0.2871c-0.0918,0.0391-0.1719,0.0586-0.2383,0.0586c-0.123,0-0.2207-0.0469-0.291-0.1406
			s-0.1055-0.25-0.1055-0.4688c0-0.2617,0.0488-0.5762,0.1484-0.9434s0.2051-0.6523,0.3164-0.8516
			c0.0586-0.1055,0.1836-0.2344,0.375-0.3848c0.3652-0.2871,0.6211-0.4629,0.7715-0.5293c0.1484-0.0664,0.3105-0.0996,0.4863-0.0996
			c0.125,0,0.25,0.0137,0.373,0.043s0.2441,0.0703,0.3613,0.1289l0.3203-0.1719l0.1113,0.0684
			c-0.0176,0.043-0.041,0.1133-0.0703,0.2129l-0.1309,0.457l-0.3848,1.6465c-0.0332,0.1445-0.0508,0.2539-0.0508,0.332
			c0,0.0801,0.0273,0.1211,0.082,0.1211C51.6919,63.3613,51.8755,63.252,52.145,63.0332z M51.2466,61.043
			c-0.1016-0.0508-0.2012-0.0879-0.2949-0.1133c-0.0957-0.0254-0.1875-0.0371-0.2754-0.0371c-0.1582,0-0.291,0.0527-0.4023,0.1582
			c-0.1094,0.1074-0.2305,0.375-0.3594,0.8027c-0.1738,0.5684-0.2598,0.9941-0.2598,1.2734c0,0.0801,0.0137,0.1406,0.041,0.1797
			c0.0273,0.041,0.0586,0.0605,0.0957,0.0605c0.0332,0,0.0801-0.0195,0.1387-0.0586c0.1543-0.1016,0.332-0.2832,0.5332-0.543
			c0.2031-0.2578,0.3711-0.5273,0.5039-0.8066c0.1309-0.2793,0.2148-0.5273,0.248-0.7441L51.2466,61.043z"/>
		<path fill="#222221" d="M55.6489,63.8828l0.0371-0.2324c0.0703,0,0.1758-0.0195,0.3145-0.0586
			c0.0586-0.0156,0.1016-0.041,0.1289-0.0781c0.0254-0.0352,0.0566-0.1465,0.0938-0.332c0.0605-0.3438,0.2109-1.2363,0.4512-2.6777
			c0.082-0.4902,0.123-0.8125,0.123-0.9648c0-0.084-0.0254-0.1387-0.0762-0.1602c-0.0859-0.043-0.2891-0.0645-0.6055-0.0645
			l0.0391-0.2324c0.2324,0.0156,0.5645,0.0234,1,0.0234l1.5859-0.0234c0.5273,0,0.9336,0.0684,1.2207,0.209
			s0.5117,0.3496,0.6719,0.627c0.1602,0.2793,0.2402,0.6172,0.2402,1.0156c0,0.5371-0.125,1.0352-0.375,1.4922
			c-0.252,0.457-0.5918,0.8125-1.0215,1.0684c-0.4277,0.2539-0.9063,0.3828-1.4297,0.3828l-1.3184-0.0273
			C56.3755,63.8496,56.0161,63.8613,55.6489,63.8828z M57.0747,63.4395l0.3105,0.0508c0.3262,0.0566,0.584,0.0859,0.7754,0.0859
			c0.3828,0,0.6836-0.0957,0.9023-0.2832c0.2734-0.2383,0.4824-0.5859,0.6309-1.0449c0.1465-0.459,0.2207-0.9082,0.2207-1.3477
			c0-0.3633-0.0605-0.6582-0.1777-0.8867c-0.1191-0.2266-0.2734-0.3906-0.4648-0.4863c-0.1895-0.0977-0.4902-0.1445-0.9023-0.1445
			c-0.2227,0-0.4316,0.0176-0.6289,0.0566l-0.2227,1.3242l-0.2285,1.373L57.0747,63.4395z"/>
		<path fill="#222221" d="M64.52,63.0195l0.0762,0.1895l-0.582,0.3691c-0.2422,0.1348-0.4453,0.2285-0.6133,0.2832
			c-0.168,0.0527-0.3203,0.0801-0.457,0.0801c-0.2773,0-0.4922-0.0723-0.6445-0.2188c-0.1504-0.1465-0.2266-0.3555-0.2266-0.6289
			c0-0.3203,0.0664-0.6914,0.2012-1.1172c0.0957-0.3008,0.2246-0.5391,0.3887-0.7148c0.1621-0.1758,0.4395-0.3633,0.832-0.5664
			c0.2207-0.1152,0.4453-0.1719,0.6699-0.1719c0.207,0,0.3711,0.0527,0.4883,0.1563c0.1191,0.1035,0.1777,0.2402,0.1777,0.4082
			c0,0.2051-0.0586,0.3945-0.1758,0.5703c-0.1172,0.1738-0.3262,0.334-0.627,0.4785s-0.6719,0.252-1.1133,0.3223
			c-0.0488,0.166-0.0723,0.3203-0.0723,0.4668c0,0.1816,0.0449,0.3184,0.1387,0.4082c0.0918,0.0898,0.2227,0.1367,0.3945,0.1367
			c0.1289,0,0.2969-0.0391,0.5-0.1133C64.0806,63.2813,64.2954,63.1699,64.52,63.0195z M62.9419,62.2715
			c0.3535-0.0957,0.5996-0.1875,0.7402-0.2773c0.1387-0.0879,0.2539-0.2148,0.3477-0.377c0.0918-0.1641,0.1387-0.3086,0.1387-0.4375
			c0-0.0977-0.0313-0.1758-0.0918-0.2363c-0.0605-0.0586-0.1426-0.0879-0.2441-0.0879c-0.1113,0-0.2188,0.0352-0.3223,0.1094
			c-0.1035,0.0723-0.1973,0.2012-0.2852,0.3848C63.1392,61.5332,63.0435,61.8398,62.9419,62.2715z"/>
		<path fill="#222221" d="M65.7329,63.75c0.082-0.3145,0.1328-0.6211,0.1543-0.916h0.2109l0.0098,0.332
			c0.0977,0.1172,0.2285,0.2148,0.3906,0.291s0.3262,0.1152,0.4922,0.1152c0.209,0,0.3672-0.0488,0.4766-0.1445
			c0.1074-0.0957,0.1621-0.2207,0.1621-0.3789c0-0.1211-0.0371-0.2207-0.1094-0.3008s-0.1973-0.1387-0.373-0.1758l-0.293-0.0605
			c-0.2754-0.0566-0.4648-0.1328-0.5645-0.2266c-0.1523-0.1406-0.2285-0.3262-0.2285-0.5547c0-0.2715,0.0938-0.4844,0.2793-0.6426
			c0.4434-0.377,0.873-0.5645,1.293-0.5645c0.1309,0,0.2656,0.0156,0.4004,0.0488c0.1328,0.0332,0.2695,0.084,0.4063,0.1523
			c-0.0566,0.2422-0.1035,0.5176-0.1367,0.8242h-0.2051l-0.0371-0.3379c-0.1367-0.1191-0.2695-0.2012-0.3945-0.248
			s-0.2539-0.0703-0.3848-0.0703c-0.1699,0-0.3047,0.0469-0.4063,0.1387s-0.1523,0.209-0.1523,0.3516
			c0,0.1387,0.0488,0.248,0.1484,0.3301c0.0957,0.0859,0.2773,0.1504,0.5488,0.1953l0.1914,0.0313
			c0.2402,0.041,0.4199,0.1289,0.541,0.2598c0.1172,0.1328,0.1777,0.2988,0.1777,0.5c0,0.2051-0.0703,0.3887-0.2129,0.5508
			c-0.1406,0.1621-0.3379,0.3184-0.5898,0.4668c-0.252,0.1504-0.5371,0.2246-0.8555,0.2246c-0.1504,0-0.2852-0.0117-0.4023-0.0332
			C66.1528,63.8848,65.9731,63.832,65.7329,63.75z"/>
		<path fill="#222221" d="M69.7114,61.5664l-0.082-0.1855c0.5508-0.4004,0.9004-0.6387,1.0488-0.7129
			c0.1914-0.0957,0.3359-0.1445,0.4316-0.1445c0.0605,0,0.1113,0.0234,0.1523,0.0703s0.0625,0.1113,0.0625,0.1973
			c0,0.1602-0.0742,0.4941-0.2227,0.998l-0.1113,0.3691c-0.1719,0.5684-0.2559,0.9297-0.2559,1.0801
			c0,0.0762,0.0313,0.1152,0.0938,0.1152c0.0605,0,0.2539-0.1094,0.5859-0.3281l0.0918,0.1816l-0.707,0.4707
			c-0.1895,0.1191-0.332,0.1934-0.4277,0.2266c-0.0645,0.0254-0.127,0.0371-0.1836,0.0371c-0.0859,0-0.1523-0.0293-0.1992-0.0879
			c-0.0469-0.0566-0.0703-0.1504-0.0703-0.2813c0-0.1699,0.0352-0.3887,0.1094-0.6563l0.2285-0.8125
			c0.1152-0.4082,0.1738-0.6738,0.1738-0.7969c0-0.0605-0.0273-0.0898-0.0801-0.0898c-0.0352,0-0.0898,0.0195-0.1641,0.0547
			C70.0083,61.3633,69.8501,61.4609,69.7114,61.5664z M70.8052,59.5078c0-0.1719,0.0449-0.3086,0.1348-0.4102
			c0.0918-0.0996,0.207-0.1504,0.3477-0.1504c0.1113,0,0.2012,0.0352,0.2715,0.1055c0.0684,0.0684,0.1035,0.1602,0.1035,0.2754
			c0,0.1582-0.0449,0.2891-0.1348,0.3926c-0.0898,0.1016-0.2051,0.1543-0.3457,0.1543c-0.1133,0-0.2051-0.0352-0.2734-0.1055
			C70.8384,59.7012,70.8052,59.6133,70.8052,59.5078z"/>
		<path fill="#222221" d="M73.436,63.7539c-0.1211-0.1094-0.1816-0.2207-0.1816-0.3359c0-0.0898,0.0352-0.1582,0.1055-0.2051
			l0.2695-0.1563c0.1211-0.0703,0.2168-0.1348,0.2871-0.1914L73.77,62.8711c-0.1797,0-0.3555-0.041-0.5254-0.125
			c-0.1289-0.0625-0.2285-0.1543-0.2988-0.2734c-0.0703-0.1211-0.1055-0.2734-0.1055-0.459c0-0.2305,0.0527-0.4434,0.1563-0.6426
			c0.1035-0.1973,0.2227-0.3438,0.3574-0.4375c0.1367-0.0938,0.377-0.2031,0.7246-0.3281c0.1563-0.0547,0.3027-0.082,0.4395-0.082
			c0.1914,0,0.3535,0.0293,0.4863,0.0859c0.0801,0.0332,0.1504,0.0566,0.2148,0.0664s0.1484,0.0156,0.2539,0.0156l0.6758-0.0234
			l0.0352,0.0547l-0.082,0.3574c-0.1348-0.0254-0.3086-0.0371-0.5195-0.0371l-0.0898,0.0078
			c0.0488,0.123,0.0723,0.248,0.0723,0.3789c0,0.1855-0.043,0.375-0.125,0.5645c-0.084,0.1875-0.1836,0.332-0.3008,0.4336
			c-0.1172,0.0996-0.3223,0.207-0.6133,0.3203c-0.2051,0.0781-0.3398,0.1465-0.4063,0.2031
			c-0.0645,0.0586-0.0957,0.1113-0.0957,0.1602c0,0.043,0.0156,0.084,0.0508,0.123c0.0469,0.0566,0.1387,0.1328,0.2734,0.2285
			l0.4551,0.3281c0.1973,0.1426,0.334,0.2734,0.4102,0.3926c0.0742,0.1191,0.1113,0.2539,0.1113,0.4023
			c0,0.3203-0.1426,0.5859-0.4258,0.7969c-0.3535,0.2598-0.8105,0.3906-1.3711,0.3906c-0.4941,0-0.8613-0.084-1.0996-0.2539
			c-0.2383-0.168-0.3574-0.375-0.3574-0.623c0-0.1563,0.0586-0.3145,0.1738-0.4727c0.1152-0.1602,0.2793-0.293,0.4961-0.4023
			C72.8462,63.9688,73.0767,63.8789,73.436,63.7539z M73.5864,63.8848l-0.3457,0.1563c-0.1348,0.0742-0.2422,0.1445-0.3223,0.2168
			c-0.0801,0.0703-0.1406,0.1523-0.1816,0.2441c-0.043,0.0918-0.0645,0.1914-0.0645,0.2969c0,0.1992,0.0879,0.3691,0.2617,0.5039
			c0.1738,0.1367,0.4141,0.2051,0.7168,0.2051c0.2949,0,0.5273-0.0664,0.6914-0.1973c0.166-0.1309,0.248-0.2891,0.248-0.4707
			c0-0.1016-0.0352-0.1973-0.1074-0.2871s-0.2676-0.2422-0.5859-0.459L73.5864,63.8848z M73.5415,61.9941
			c0,0.2188,0.0449,0.3789,0.1387,0.4805c0.0918,0.1035,0.2227,0.1543,0.3945,0.1543c0.1348,0,0.2539-0.041,0.3613-0.125
			c0.1074-0.082,0.1992-0.2246,0.2773-0.4238s0.1172-0.4141,0.1172-0.6445c0-0.209-0.0469-0.3633-0.1406-0.4648
			c-0.0938-0.0996-0.2246-0.1504-0.3926-0.1504c-0.2402,0-0.4258,0.123-0.5586,0.3672
			C73.6079,61.4297,73.5415,61.6992,73.5415,61.9941z"/>
		<path fill="#222221" d="M76.9595,63.9414l-0.0859-0.0898c0.0488-0.123,0.0879-0.2344,0.1191-0.3379
			c0.1094-0.3711,0.1855-0.6328,0.2285-0.7832c0.0781-0.2754,0.1406-0.5625,0.1914-0.8574s0.0762-0.4883,0.0762-0.5762
			c0-0.0684-0.0254-0.1035-0.0781-0.1035c-0.0293,0-0.0781,0.0176-0.1465,0.0547c-0.1387,0.0723-0.2617,0.1523-0.3691,0.2402
			l-0.0898-0.1855l0.5176-0.3887c0.2266-0.1621,0.4141-0.2754,0.5605-0.3398c0.082-0.0332,0.1602-0.0508,0.2324-0.0508
			c0.0645,0,0.1133,0.0156,0.1465,0.0488s0.0488,0.0879,0.0488,0.1602c0,0.0645-0.0078,0.1445-0.0273,0.2422
			c-0.0488,0.2598-0.1035,0.5-0.1641,0.7188l-0.1387,0.5117c0.1797-0.293,0.3008-0.4785,0.3613-0.5527
			c0.1875-0.2305,0.3887-0.4395,0.6074-0.625c0.2168-0.1855,0.4238-0.3223,0.6172-0.4121c0.1348-0.0605,0.252-0.0918,0.3555-0.0918
			c0.0957,0,0.168,0.0273,0.2188,0.082c0.0488,0.0547,0.0742,0.1328,0.0742,0.2363c0,0.1504-0.0684,0.4727-0.209,0.9648
			l-0.1719,0.627c-0.0938,0.3379-0.1406,0.5996-0.1406,0.7891c0,0.0879,0.0254,0.1309,0.0781,0.1309
			c0.0391,0,0.0957-0.0215,0.1719-0.0645c0.1445-0.084,0.2578-0.166,0.3379-0.2422l0.0859,0.2012
			c-0.4043,0.2891-0.6758,0.4707-0.8184,0.543c-0.1875,0.0996-0.3438,0.1504-0.4629,0.1504c-0.0859,0-0.1484-0.0273-0.1895-0.082
			s-0.0605-0.1504-0.0605-0.2871c0-0.1484,0.0449-0.3809,0.1367-0.6953l0.1094-0.3789c0.0977-0.3379,0.1582-0.5625,0.1797-0.6719
			c0.0625-0.2637,0.0918-0.4336,0.0918-0.5098c0-0.041-0.0117-0.0723-0.0352-0.0957s-0.0566-0.0332-0.0977-0.0332
			c-0.1133,0-0.2695,0.0977-0.4648,0.293c-0.2715,0.2715-0.4961,0.5996-0.6719,0.9863c-0.1758,0.3848-0.3027,0.832-0.377,1.3418
			C77.4185,63.8301,77.1685,63.875,76.9595,63.9414z"/>
	</g>
</g>
</svg>
